<svg width="24" height="24" viewBox="0 0 24 24" fill="none" xmlns="http://www.w3.org/2000/svg">
<path d="M13.0608 4.50003H18.7501V9.75006C18.7501 10.1641 19.0861 10.5001 19.5001 10.5001C19.9141 10.5001 20.2501 10.1641 20.2501 9.75006V3.75003C20.2501 3.33602 19.9141 3.00002 19.5001 3.00002H13.0608L13.2806 2.78021C13.5734 2.48741 13.5734 2.01264 13.2806 1.71966C12.9878 1.42686 12.5125 1.42686 12.22 1.71966L10.72 3.21967C10.4272 3.51247 10.4272 3.98725 10.72 4.28022L12.22 5.78023C12.3662 5.92688 12.5582 6.00004 12.7502 6.00004C12.9422 6.00004 13.1339 5.92688 13.2804 5.78023C13.5732 5.48742 13.5732 5.01265 13.2804 4.71968L13.0608 4.50003Z" fill="#626477"/>
<path d="M11.7802 18.22C11.4877 17.9272 11.0121 17.9272 10.7196 18.22C10.4268 18.5128 10.4268 18.9875 10.7196 19.2805L10.9394 19.5002H5.25013V14.2501C5.25013 13.8361 4.91414 13.5001 4.50013 13.5001C4.08612 13.5001 3.75012 13.8361 3.75012 14.2501V20.2502C3.75012 20.6642 4.08612 21.0002 4.50013 21.0002H10.9394L10.7196 21.22C10.4268 21.5128 10.4268 21.9875 10.7196 22.2805C10.866 22.427 11.058 22.5002 11.25 22.5002C11.442 22.5002 11.634 22.427 11.7802 22.2804L13.2802 20.7803C13.573 20.4875 13.573 20.0128 13.2802 19.7198L11.7802 18.22Z" fill="#626477"/>
<path d="M21.8474 16.8622C22.2547 16.3503 22.5 15.7034 22.5 15C22.5 13.3457 21.1542 11.9999 19.5 11.9999C17.8458 11.9999 16.4999 13.3457 16.4999 15C16.4999 15.7034 16.7452 16.3503 17.1525 16.8622C15.8827 17.4637 14.9999 18.7542 14.9999 20.25V23.25C14.9999 23.664 15.3359 24 15.7499 24H23.25C23.664 24 24 23.664 24 23.25V20.25C24 18.7542 23.1172 17.4637 21.8474 16.8622ZM19.5 13.4999C20.3272 13.4999 21 14.1728 21 15C21 15.8271 20.3272 16.5 19.5 16.5C18.6728 16.5 18 15.8271 18 15C18 14.1728 18.6728 13.4999 19.5 13.4999ZM22.5 22.5H16.4999V20.25C16.4999 19.0091 17.5091 18 18.75 18H20.25C21.4908 18 22.5 19.0091 22.5 20.25V22.5Z" fill="#626477"/>
<path d="M9.00005 11.2501V8.25004C9.00005 6.75424 8.11727 5.4638 6.84745 4.8623C7.25476 4.35037 7.50004 3.70348 7.50004 3.00002C7.50004 1.34581 6.15423 0 4.50002 0C2.84582 0 1.50001 1.34581 1.50001 3.00002C1.50001 3.70348 1.74527 4.35037 2.1526 4.8623C0.882776 5.4638 0 6.75424 0 8.25004V11.2501C0 11.6641 0.335993 12.0001 0.750004 12.0001H8.25004C8.66405 12.0001 9.00005 11.6641 9.00005 11.2501ZM4.50002 1.50001C5.32721 1.50001 6.00003 2.17283 6.00003 3.00002C6.00003 3.82721 5.32721 4.50002 4.50002 4.50002C3.67283 4.50002 3.00002 3.82721 3.00002 3.00002C3.00002 2.17283 3.67283 1.50001 4.50002 1.50001ZM7.50004 10.5001H1.50001V8.25004C1.50001 7.00919 2.50917 6.00003 3.75002 6.00003H5.25003C6.49088 6.00003 7.50004 7.00919 7.50004 8.25004V10.5001Z" fill="#626477"/>
</svg>
