<svg width="23" height="19" viewBox="0 0 23 19" fill="none" xmlns="http://www.w3.org/2000/svg">
<path d="M10.5519 12.5653C10.7239 12.7374 10.9571 12.8342 11.2004 12.8342C11.4437 12.8342 11.6769 12.7374 11.8489 12.5653L17.3489 7.0653C17.5807 6.83351 17.6712 6.49591 17.5863 6.17941C17.5016 5.8629 17.2543 5.61562 16.9378 5.53087C16.6213 5.44599 16.2837 5.53647 16.0519 5.76826L10.5519 11.2682C10.3797 11.4402 10.283 11.6735 10.283 11.9168C10.283 12.1601 10.3797 12.3934 10.5519 12.5653L10.5519 12.5653Z" fill="#626477"/>
<path d="M12.1171 5.9583C12.1171 6.71761 11.5015 7.33321 10.7422 7.33321C9.98272 7.33321 9.36713 6.71761 9.36713 5.9583C9.36713 5.19882 9.98272 4.58322 10.7422 4.58322C11.5015 4.58322 12.1171 5.19882 12.1171 5.9583Z" fill="#626477"/>
<path d="M18.5337 12.375C18.5337 13.1345 17.9181 13.7501 17.1588 13.7501C16.3993 13.7501 15.7837 13.1345 15.7837 12.375C15.7837 11.6157 16.3993 11.0001 17.1588 11.0001C17.9181 11.0001 18.5337 11.6157 18.5337 12.375Z" fill="#626477"/>
<path d="M21.2837 0H9.36711C8.3143 0.000799257 7.31268 0.453994 6.61716 1.24429C5.92165 0.453994 4.91999 0.000777527 3.86721 0H1.11727C0.874129 0 0.640888 0.0965525 0.469054 0.268554C0.297053 0.440395 0.2005 0.673621 0.2005 0.916602V17.4165C0.2005 17.6595 0.297053 17.8928 0.469054 18.0646C0.640896 18.2366 0.874121 18.3331 1.11727 18.3331H3.86721C4.92003 18.3323 5.92165 17.8791 6.61716 17.0889C7.31268 17.8791 8.31434 18.3324 9.36711 18.3331H21.2837C21.5269 18.3331 21.7601 18.2366 21.9319 18.0646C22.1039 17.8927 22.2005 17.6595 22.2005 17.4165V0.916602C22.2005 0.673625 22.1039 0.440387 21.9319 0.268554C21.7601 0.0965525 21.5269 0 21.2837 0ZM20.3672 16.4999H9.36719C8.88091 16.4999 8.41464 16.3068 8.07093 15.963C7.72709 15.6192 7.53383 15.1529 7.53383 14.6666C7.53383 14.3392 7.35911 14.0366 7.07554 13.8728C6.79196 13.7091 6.44251 13.7091 6.15896 13.8728C5.87537 14.0366 5.70066 14.3392 5.70066 14.6666C5.70066 15.1529 5.5074 15.6191 5.16356 15.963C4.81987 16.3068 4.35358 16.4999 3.8673 16.4999H2.03393V1.83333H3.8673C4.35358 1.83333 4.81985 2.02643 5.16356 2.37027C5.5074 2.71411 5.70066 3.18041 5.70066 3.66669C5.70066 3.99407 5.87538 4.2967 6.15896 4.46051C6.44254 4.6242 6.79198 4.6242 7.07554 4.46051C7.35912 4.29666 7.53383 3.99407 7.53383 3.66669C7.53383 3.18041 7.72709 2.71414 8.07093 2.37027C8.41462 2.02643 8.88091 1.83333 9.36719 1.83333H20.3672V16.4999Z" fill="#626477"/>
<path d="M6.61711 7.33328C6.37397 7.33328 6.14089 7.42983 5.96889 7.60184C5.79705 7.77368 5.7005 8.0069 5.7005 8.25005V10.0834V10.0833C5.7005 10.4108 5.87522 10.7134 6.15879 10.8772C6.44237 11.0409 6.79182 11.0409 7.07537 10.8772C7.35895 10.7134 7.53366 10.4108 7.53366 10.0833V8.25005C7.53366 8.00692 7.43711 7.77367 7.26527 7.60184C7.09327 7.42984 6.8602 7.33329 6.61706 7.33329L6.61711 7.33328Z" fill="#626477"/>
</svg>
