<svg width="24" height="22" viewBox="0 0 24 22" fill="none" xmlns="http://www.w3.org/2000/svg">
<path d="M20.0001 21H14.0002C13.7349 21 13.4804 20.8947 13.2929 20.7072C13.1054 20.5197 13.0001 20.2653 13.0001 20V16H11.0002V20C11.0002 20.2652 10.8949 20.5197 10.7074 20.7072C10.5199 20.8947 10.2654 21 10.0002 21H4.00022C3.73497 21 3.48051 20.8947 3.29299 20.7072C3.10547 20.5197 3.00021 20.2653 3.00021 20V10.0001H2.00022C1.7147 10.0001 1.44275 9.87807 1.25304 9.6649C1.06312 9.45155 0.973654 9.16734 1.00676 8.88367C1.04006 8.6002 1.19296 8.34425 1.42696 8.18073L11.4269 1.1808C11.5948 1.06306 11.795 1 12.0001 1C12.2053 1 12.4054 1.06306 12.5734 1.1808L22.5733 8.18073C22.8073 8.34423 22.9602 8.60018 22.9935 8.88367C23.0266 9.16734 22.9371 9.45157 22.7472 9.6649C22.5575 9.87807 22.2855 10.0001 22 10.0001H21.0001V20C21.0001 20.2652 20.8948 20.5197 20.7073 20.7072C20.5198 20.8947 20.2653 21 20 21H20.0001ZM15.0001 19H19.0001V9.00013C18.9999 8.74436 19.0978 8.49846 19.2734 8.31261L12.0001 3.22076L4.72684 8.31261C4.90243 8.49843 5.00027 8.74434 5.00009 9.00013V19H9.00005V15.0001C9.00005 14.7348 9.10532 14.4804 9.29282 14.2928C9.48032 14.1053 9.73478 14.0001 10.0001 14.0001H14C14.2653 14.0001 14.5197 14.1053 14.7072 14.2928C14.8948 14.4803 15 14.7348 15 15.0001L15.0001 19Z" fill="#626477" stroke="#626477" stroke-width="0.4"/>
</svg>
