<svg width="24" height="24" viewBox="0 0 24 24" fill="none" xmlns="http://www.w3.org/2000/svg">
<path fill-rule="evenodd" clip-rule="evenodd" d="M20.2186 1.00056H3.71024C2.22499 1.00056 1 2.22554 1 3.7108V15.1576C1 16.6428 2.22499 17.8678 3.71024 17.8678H5.75672L5.72829 18.1153C5.6224 19.0432 5.45632 20.0074 5.17543 20.9002C4.96867 21.5578 5.1955 22.2478 5.73832 22.668C6.02534 22.8904 6.35193 22.9996 6.71363 22.9996C7.03242 22.9996 7.34117 22.9138 7.60813 22.7287C9.55317 21.4452 11.3059 19.7192 12.8113 17.9458L12.8776 17.8673H20.2175C21.7027 17.8673 22.9277 16.6423 22.9277 15.157V3.71024C22.9277 2.22499 21.7027 1 20.2175 1L20.2186 1.00056ZM21.438 15.3794C21.331 15.9662 20.8099 16.4205 20.1946 16.4205H12.532C12.3242 16.4205 12.1023 16.5252 11.9719 16.6924C10.5569 18.4424 8.82308 20.1623 6.95662 21.4196L6.44055 21.7674L6.61945 21.1716C7.00344 19.8909 7.18568 18.5087 7.27262 17.1767L7.27318 17.1712C7.29102 16.9733 7.21745 16.7794 7.077 16.6389C6.93433 16.4962 6.75376 16.3965 6.54867 16.3965H3.71024C3.01972 16.3965 2.44736 15.8241 2.44736 15.1336V3.71024C2.44736 3.01972 3.01972 2.44736 3.71024 2.44736H20.2186C20.9091 2.44736 21.4815 3.01972 21.4815 3.71024V15.3788H21.438V15.3794ZM16.756 12.5437C16.7409 12.42 16.6384 12.2818 16.5052 12.2818H15.5594C15.4217 12.2818 15.3086 12.3949 15.3086 12.5326V13.3368C15.3086 13.4745 15.4217 13.5876 15.5594 13.5876H16.5052C16.6428 13.5876 16.756 13.4745 16.756 13.3368V12.5443V12.5437ZM18.6715 7.61705C18.6141 6.13959 17.6889 5.28077 16.1741 5.28077C15.4173 5.28077 14.7017 5.50927 14.1962 6.09389C13.8551 6.48792 13.6294 7.04078 13.6294 7.56577V7.63655C13.6294 7.77421 13.7425 7.88735 13.8802 7.88735H14.6604C14.7981 7.88735 14.9112 7.77421 14.9112 7.63655V7.56577C14.9112 7.37517 14.9848 7.17008 15.0957 7.01793C15.351 6.66793 15.7851 6.56316 16.1975 6.56316C16.9198 6.56316 17.3896 6.82064 17.3896 7.61314C17.3896 8.12365 16.7331 8.67539 16.3591 8.97022C15.7623 9.44115 15.4268 9.86081 15.4268 10.6639V10.8294C15.4268 10.9671 15.5399 11.0802 15.6775 11.0802H16.4578C16.5955 11.0802 16.7086 10.9671 16.7086 10.8294V10.6639C16.7086 10.3089 16.9326 10.1618 17.1918 9.94831C17.9196 9.34752 18.6698 8.6375 18.672 7.61705H18.6715ZM11.5857 12.2812H5.55497C5.41731 12.2812 5.30417 12.3944 5.30417 12.532V13.3363C5.30417 13.4739 5.41731 13.587 5.55497 13.587H11.5857C11.7234 13.587 11.8365 13.4739 11.8365 13.3363V12.532C11.8365 12.3944 11.7234 12.2812 11.5857 12.2812ZM11.5857 8.78073H5.55497C5.41731 8.78073 5.30417 8.89386 5.30417 9.03152V9.83573C5.30417 9.97339 5.41731 10.0865 5.55497 10.0865H11.5857C11.7234 10.0865 11.8365 9.97339 11.8365 9.83573V9.03152C11.8365 8.89442 11.7234 8.78073 11.5857 8.78073ZM11.5857 5.28077H5.55497C5.41731 5.28077 5.30417 5.3939 5.30417 5.53156V6.33577C5.30417 6.47343 5.41731 6.58656 5.55497 6.58656H11.5857C11.7234 6.58656 11.8365 6.47343 11.8365 6.33577V5.53156C11.8365 5.3939 11.7234 5.28077 11.5857 5.28077Z" fill="#626477" stroke="#626477" stroke-width="0.4"/>
</svg>
