<svg width="24" height="24" viewBox="0 0 24 24" fill="none" xmlns="http://www.w3.org/2000/svg">
<path d="M1.64955 1.00001C1.47714 0.999284 1.31142 1.06752 1.18956 1.18938C1.06753 1.31142 0.999285 1.47697 1.00001 1.64955V20.3298C1.00001 21.7972 2.20285 23 3.67019 23H19.9278C19.932 22.9995 19.9363 22.9991 19.9405 22.9986C21.629 22.9688 22.9986 21.5802 22.9986 19.8848V6.82201C23.0001 6.46456 22.7114 6.17375 22.3542 6.17227H20.7025V4.41969C20.7033 4.24782 20.6356 4.08282 20.5144 3.96096C20.3933 3.83911 20.2286 3.77033 20.0568 3.76996H18.0652V1.64946V1.64964C18.0666 1.2922 17.778 1.00138 17.4207 1.00009L1.64955 1.00001ZM2.29402 2.29385H16.771V19.8844C16.771 20.5624 16.9912 21.1914 17.3624 21.7041H3.67018C2.89732 21.7041 2.29402 21.102 2.29402 20.3292V2.29385ZM4.27172 4.48636V4.48654C4.10004 4.48582 3.93521 4.55333 3.81353 4.67411C3.69168 4.79506 3.6229 4.95934 3.62218 5.13102C3.62145 5.30343 3.68969 5.46897 3.81173 5.59101C3.93359 5.71287 4.09932 5.78111 4.27172 5.78057H14.8463C15.0187 5.78111 15.1844 5.71287 15.3062 5.59101C15.4283 5.46897 15.4965 5.30343 15.4958 5.13102C15.4951 4.95934 15.4263 4.79506 15.3044 4.67411C15.1828 4.55333 15.0179 4.48582 14.8463 4.48654L4.27172 4.48636ZM18.0652 5.06386H19.4072V18.1179C19.4079 18.2894 19.4767 18.4536 19.5986 18.5746C19.7203 18.6954 19.8851 18.7629 20.0568 18.7624C20.4126 18.7616 20.701 18.4737 20.7025 18.1179V7.46754H21.7047V19.8847C21.7047 20.8895 20.9266 21.6822 19.9279 21.7044H19.8849C18.8657 21.7044 18.0652 20.904 18.0652 19.8847L18.0652 5.06386ZM4.27172 7.05672C3.91445 7.05546 3.62364 7.34394 3.62216 7.70138V11.5506V11.5504C3.62361 11.9079 3.91444 12.1964 4.27172 12.1951H8.12095C8.47677 12.1942 8.76524 11.9064 8.76672 11.5504V7.70138C8.76528 7.34538 8.47679 7.0576 8.12095 7.05672L4.27172 7.05672ZM10.9013 7.50028V7.50046C10.7289 7.49974 10.5632 7.56798 10.4413 7.68984C10.3193 7.81187 10.2511 7.97742 10.2518 8.14982C10.2525 8.32151 10.3213 8.48579 10.4431 8.60674C10.5648 8.72752 10.7296 8.79503 10.9013 8.79449H14.8466C15.0183 8.79503 15.1831 8.72752 15.3048 8.60674C15.4266 8.48579 15.4954 8.32151 15.4961 8.14982C15.4969 7.97742 15.4286 7.81187 15.3066 7.68984C15.1847 7.56798 15.019 7.49974 14.8466 7.50046L10.9013 7.50028ZM4.91642 8.35074H7.47163V10.9009L4.91642 10.9011V8.35074ZM10.9013 10.5193C10.7296 10.5187 10.5648 10.5862 10.4431 10.707C10.3213 10.828 10.2525 10.9922 10.2518 11.1639C10.2511 11.3363 10.3193 11.5019 10.4413 11.6239C10.5632 11.7458 10.7289 11.814 10.9013 11.8133H14.8466C15.019 11.814 15.1847 11.7458 15.3066 11.6239C15.4286 11.5019 15.4969 11.3363 15.4961 11.1639C15.4954 10.9922 15.4266 10.828 15.3048 10.707C15.1831 10.5862 15.0183 10.5187 14.8466 10.5193H10.9013ZM4.22412 13.494V13.4942C4.05171 13.4935 3.88599 13.5617 3.76413 13.6836C3.64209 13.8056 3.57385 13.9711 3.57457 14.1437C3.57493 14.3154 3.64354 14.48 3.76539 14.6012C3.88725 14.7223 4.05225 14.79 4.22412 14.7893H8.16939C8.52521 14.788 8.81317 14.4995 8.81386 14.1437C8.81458 13.972 8.74707 13.8072 8.62611 13.6853C8.50534 13.5635 8.34105 13.4947 8.16937 13.4942L4.22412 13.494ZM10.9013 13.494V13.4942C10.7289 13.4935 10.5632 13.5617 10.4413 13.6836C10.3193 13.8056 10.2511 13.9711 10.2518 14.1437C10.2521 14.3154 10.3207 14.48 10.4426 14.6012C10.5644 14.7223 10.7295 14.79 10.9013 14.7893H14.8466C15.0185 14.79 15.1835 14.7223 15.3053 14.6012C15.4272 14.48 15.4958 14.3154 15.4961 14.1437C15.4969 13.9711 15.4286 13.8056 15.3066 13.6836C15.1847 13.5617 15.019 13.4935 14.8466 13.4942L10.9013 13.494ZM4.22412 16.513V16.5132C4.05244 16.5124 3.88761 16.58 3.76593 16.7007C3.64408 16.8217 3.57529 16.986 3.57457 17.1576C3.57385 17.33 3.64209 17.4956 3.76413 17.6176C3.88599 17.7395 4.05171 17.8077 4.22412 17.8072H8.16939C8.34107 17.8065 8.50535 17.7377 8.62612 17.6158C8.74708 17.494 8.8146 17.3291 8.81387 17.1576C8.81243 16.8022 8.52467 16.5144 8.1694 16.5132L4.22412 16.513ZM10.9013 16.513V16.5132C10.7296 16.5124 10.5648 16.58 10.4431 16.7007C10.3213 16.8217 10.2525 16.986 10.2518 17.1576C10.2511 17.33 10.3193 17.4956 10.4413 17.6176C10.5632 17.7395 10.7289 17.8077 10.9013 17.8072H14.8466C15.019 17.8077 15.1847 17.7395 15.3066 17.6176C15.4286 17.4956 15.4969 17.33 15.4961 17.1576C15.4954 16.986 15.4266 16.8217 15.3048 16.7007C15.1831 16.58 15.0183 16.5124 14.8466 16.5132L10.9013 16.513Z" fill="#626477" stroke="#626477" stroke-width="0.4"/>
</svg>
