<svg width="24" height="21" viewBox="0 0 24 21" fill="none" xmlns="http://www.w3.org/2000/svg">
<path fill-rule="evenodd" clip-rule="evenodd" d="M5.14286 2.57143C5.14286 1.15122 6.29407 0 7.71429 0H21.4286C22.8488 0 24 1.15122 24 2.57143V11.1429C24 12.5631 22.8488 13.7143 21.4286 13.7143H18.8571V18C18.8571 19.4202 17.7059 20.5714 16.2857 20.5714H2.57143C1.15122 20.5714 0 19.4202 0 18V9.42857C0 8.00836 1.15122 6.85714 2.57143 6.85714H5.14286V2.57143ZM6.85714 4.28571V6H22.2857V4.28571H6.85714ZM22.2857 2.57143H6.85714C6.85714 2.09808 7.24094 1.71429 7.71429 1.71429H21.4286C21.9019 1.71429 22.2857 2.09808 22.2857 2.57143ZM22.2857 7.71429H6.85714V11.1429C6.85714 11.6162 7.24094 12 7.71429 12H21.4286C21.9019 12 22.2857 11.6162 22.2857 11.1429V7.71429ZM7.71429 13.7143H17.1429V18C17.1429 18.4733 16.7591 18.8571 16.2857 18.8571H2.57143C2.09808 18.8571 1.71429 18.4733 1.71429 18V9.42857C1.71429 8.95523 2.09808 8.57143 2.57143 8.57143H5.14286V11.1429C5.14286 12.5631 6.29407 13.7143 7.71429 13.7143Z" fill="#636578"/>
</svg>
