<svg width="40" height="40" viewBox="0 0 40 40" fill="none" xmlns="http://www.w3.org/2000/svg">
<rect width="40" height="40" rx="8" fill="#26C6F9"/>
<rect width="40" height="40" rx="8" fill="white" fill-opacity="0.88"/>
<rect width="40" height="40" rx="8" fill="#E5F8FE"/>
<g clip-path="url(#clip0_444_18808)">
<path fill-rule="evenodd" clip-rule="evenodd" d="M25.607 21.3672C26.4679 20.5428 27.3289 19.7184 28.1897 18.8938L28.2515 18.8346L28.3235 18.7885C28.9335 18.3974 29.7348 18.4713 30.263 18.9671C30.8232 19.493 30.9789 20.3846 30.4851 21.0098C29.2074 22.6276 27.9125 24.2656 26.5752 25.836C26.3029 26.2117 25.8637 26.4126 25.3997 26.4105C23.4944 26.402 21.5813 26.387 19.6803 26.4073C19.2426 26.4148 18.8298 26.6121 18.549 26.948L18.3848 27.1444C18.5298 27.6384 18.408 28.1948 18.0193 28.5835L15.6356 30.9672L10.0332 25.3649L12.4169 22.9812C12.8608 22.5373 13.5234 22.4415 14.0619 22.6936C15.0985 20.8112 17.3139 19.9055 19.3891 20.5186C19.6655 20.6003 19.9328 20.713 20.1898 20.8426C20.3431 20.9199 20.5064 20.9655 20.6787 20.9653C21.5846 20.9642 22.4905 20.9616 23.3964 20.9602C23.7996 20.9596 24.217 20.9503 24.6194 20.966C24.9996 20.981 25.3431 21.1305 25.607 21.3671V21.3672ZM17.397 27.1512L13.8494 23.6036C13.6266 23.3808 13.2621 23.3808 13.0393 23.6036L11.2777 25.3652L15.6356 29.723L17.3971 27.9615C17.6199 27.7387 17.6199 27.3741 17.3971 27.1513L17.397 27.1512ZM17.8739 26.3836L14.7558 23.2655C15.5562 21.6456 17.4069 20.8507 19.1398 21.3627C19.3383 21.4214 19.5548 21.5081 19.7937 21.6285C20.0918 21.7789 20.391 21.8458 20.6799 21.8454C23.0021 21.8427 24.304 21.8344 24.5849 21.8454C24.9624 21.8602 25.2576 22.178 25.2576 22.5558C25.2576 22.9337 24.9627 23.2646 24.5849 23.2663C22.2076 23.277 21.0189 23.254 21.0189 23.254C20.8628 23.2507 20.7171 23.3321 20.638 23.4668C20.559 23.6014 20.559 23.7684 20.638 23.903C20.7171 24.0376 20.8627 24.1156 21.0189 24.1158C23.4185 24.1184 24.6183 24.1249 24.6183 24.1249C25.0882 24.0956 25.5207 23.8585 25.7984 23.4781C26.076 23.0978 26.1699 22.6136 26.0545 22.1571C27.8839 20.4052 28.7984 19.5293 28.7984 19.5293C29.0701 19.3552 29.4255 19.3879 29.6608 19.6088C29.8961 19.8297 29.9946 20.2111 29.7946 20.4644C27.2237 23.7194 25.8773 25.2983 25.8773 25.2983C25.7745 25.4573 25.593 25.5313 25.4037 25.5305C21.5781 25.5133 19.6653 25.5275 19.6653 25.5275C18.9723 25.5394 18.3186 25.8519 17.8741 26.3836H17.8739ZM13.5078 24.5402C13.7507 24.5402 13.9477 24.7372 13.9477 24.9802C13.9477 25.2231 13.7507 25.4202 13.5078 25.4202C13.2648 25.4202 13.0678 25.2231 13.0678 24.9802C13.0678 24.7372 13.2648 24.5402 13.5078 24.5402ZM21.6109 19.318C21.4383 19.2339 21.3831 19.0114 21.4575 18.8344C21.532 18.6575 21.7356 18.5269 21.9105 18.6061C23.1983 19.1886 24.7064 18.9538 25.6942 17.9428C26.6819 16.9318 26.9133 15.4028 26.2691 14.1447C25.6248 12.8867 24.2489 12.1808 22.8513 12.3914C21.4537 12.602 20.3468 13.6818 20.1017 15.0738C20.3635 15.0737 20.6253 15.0744 20.887 15.0738C21.0357 15.0735 21.1713 15.1586 21.2338 15.2935C21.2963 15.4284 21.2794 15.5921 21.1773 15.7001C19.5487 17.4223 18.7267 18.2761 18.7267 18.2761C18.654 18.3596 18.5486 18.4076 18.4379 18.4076C18.3271 18.4076 18.2257 18.356 18.1491 18.2761C16.513 16.5674 15.6893 15.7185 15.6893 15.7185C15.5956 15.6114 15.5694 15.4609 15.6215 15.3285C15.6736 15.1961 15.7946 15.0944 15.9368 15.089C16.175 15.0799 16.4634 15.089 16.8015 15.089C17.0546 11.6901 19.8711 9.05269 23.2793 9.0232C26.6876 8.99371 29.5487 11.582 29.8612 14.976C29.8737 15.1119 29.8139 15.2445 29.7028 15.3238C29.5916 15.4031 29.4466 15.417 29.3223 15.3605C29.198 15.3039 29.1134 15.1852 29.1004 15.0493C28.8091 12.0241 26.2269 9.73986 23.1888 9.81951C20.1506 9.89916 17.7376 12.318 17.5593 15.3518C17.5412 15.6613 17.2211 15.8675 16.9115 15.8529C17.9096 16.9 18.4087 17.4235 18.4087 17.4235C19.4394 16.3805 19.9549 15.859 19.9549 15.859C19.8448 15.859 19.7898 15.859 19.7898 15.859C19.6633 15.8782 19.5348 15.8401 19.4391 15.7551C19.3435 15.67 19.2879 15.5469 19.2948 15.4191C19.3919 13.6336 20.6495 12.1235 22.3862 11.6983C24.123 11.2732 25.9336 12.033 26.8468 13.5703C27.76 15.1076 27.5611 17.0611 26.357 18.3829C25.1529 19.7047 23.2177 20.1022 21.6109 19.318V19.318ZM22.9801 17.2168H21.8816V16.5711H22.9801V16.215H21.8816V15.5692H22.6592L21.7368 13.7103H22.6421L23.2124 14.9777C23.2839 15.1356 23.3453 15.2704 23.3955 15.382C23.4509 15.2604 23.5122 15.1255 23.5796 14.9777L24.157 13.7103H25.0624L24.1309 15.5692H24.9175V16.215H23.807V16.5711H24.9175V17.2168H23.807V18.0316H22.9801V17.2168V17.2168ZM29.5426 15.8804C29.7855 15.8804 29.9826 16.0774 29.9826 16.3204C29.9826 16.5634 29.7855 16.7604 29.5426 16.7604C29.2996 16.7604 29.1026 16.5634 29.1026 16.3204C29.1026 16.0774 29.2996 15.8804 29.5426 15.8804Z" fill="#26C6F9" stroke="#26C6F9" stroke-width="0.199785" stroke-miterlimit="22.9256"/>
</g>
<defs>
<clipPath id="clip0_444_18808">
<rect width="20.8044" height="22" fill="white" transform="translate(10 9)"/>
</clipPath>
</defs>
</svg>
