<svg width="40" height="40" viewBox="0 0 40 40" fill="none" xmlns="http://www.w3.org/2000/svg">
<rect width="40" height="40" rx="8" fill="#FDB528"/>
<rect width="40" height="40" rx="8" fill="white" fill-opacity="0.88"/>
<rect width="40" height="40" rx="8" fill="#FFF6E5"/>
<g clip-path="url(#clip0_444_18798)">
<path fill-rule="evenodd" clip-rule="evenodd" d="M11.0168 28.0462C11.0161 28.0285 11.0156 28.0107 11.0156 27.9928V27.8058V12.7974C11.0156 11.3554 12.2526 10.0603 13.7204 10.0603H21.1806V10.0146H26.0155C27.5536 10.1189 28.7637 11.44 28.7637 12.9925V17.1787C28.7637 17.7977 28.2551 18.3027 27.6315 18.3027H23.9705C23.9708 18.5791 23.9708 18.8554 23.9694 19.1318C23.9688 19.2415 23.9684 19.3513 23.966 19.4611C23.9656 19.4832 23.965 19.5054 23.9642 19.5275C26.6347 19.7882 28.7212 22.0239 28.7212 24.7435C28.7212 27.6383 26.3573 29.9851 23.4413 29.9851C22.1841 29.9851 21.0298 29.5486 20.1229 28.8203L20.119 28.8243C20.119 28.8243 19.2752 29.6655 19.1397 29.8009C19.0287 29.9119 18.8781 29.9748 18.7206 29.9736C18.5631 29.9724 18.4128 29.9077 18.3043 29.7944C18.3043 29.7944 18.0528 29.531 17.5499 29.0042L16.7644 29.7912C16.6524 29.9034 16.5075 29.9775 16.3483 29.9775C16.1891 29.9775 16.0468 29.9009 15.9322 29.7912C15.6794 29.5491 15.4191 29.3033 15.1771 29.0259C14.9835 29.2365 14.729 29.4781 14.4349 29.7717C14.316 29.8904 14.1628 29.9691 13.9943 29.9691C13.8257 29.9691 13.6698 29.8931 13.5536 29.7717L12.8182 29.0037L12.8175 29.003C12.5084 29.3156 12.2383 29.6006 11.9811 29.8303C11.8089 29.9841 11.5522 30.0013 11.3447 29.899C11.1372 29.7966 11.0124 29.5838 11.0157 29.3538C11.022 28.9179 11.0188 28.482 11.0169 28.046L11.0168 28.0462ZM23.0202 20.6471C22.9707 20.6565 22.9205 20.6625 22.87 20.6651C20.8497 20.9414 19.2935 22.662 19.2935 24.7436C19.2935 27.0176 21.1505 28.8612 23.4412 28.8612C25.7318 28.8612 27.5889 27.0176 27.5889 24.7436C27.5889 22.4696 25.7318 20.626 23.4412 20.626C23.299 20.626 23.1586 20.6331 23.0202 20.647V20.6471ZM24.4117 11.8103C24.3818 11.8538 24.3485 11.896 24.3118 11.9364C24.096 12.2346 23.9687 12.5995 23.9687 12.9927V17.1787V17.1788H27.6314V12.9926C27.6314 11.9927 26.8073 11.1746 25.8001 11.1746C25.2466 11.1746 24.7483 11.4217 24.4118 11.8103H24.4117ZM23.4327 11.2265C23.4434 11.2123 23.4543 11.1983 23.4653 11.1843H13.7204C12.8854 11.1843 12.1478 11.9686 12.1478 12.7975V27.9929C12.1478 27.9929 12.2311 27.9161 12.3968 27.7619C12.6145 27.5598 12.9526 27.5595 13.1701 27.7619C13.1701 27.7619 13.4464 28.0374 13.999 28.5881C13.999 28.5881 14.2633 28.329 14.7918 27.8107C15.0015 27.6051 15.3388 27.6051 15.5486 27.8107C15.5486 27.8107 15.815 28.072 16.3479 28.5945C16.3479 28.5945 16.618 28.3412 17.1441 27.8204C17.2513 27.7143 17.3908 27.6466 17.5422 27.6466C17.6935 27.6466 17.838 27.7096 17.9403 27.8204C17.9403 27.8204 18.2089 28.0751 18.7462 28.5847C18.7462 28.5847 18.9363 28.4004 19.3163 28.0319C18.1096 26.5437 17.814 24.5217 18.5446 22.7544C19.2753 20.9871 20.9164 19.7542 22.8283 19.5366C22.8341 19.5423 22.8339 17.309 22.8283 12.8366C22.8275 12.2446 23.0427 11.6728 23.4327 11.2265V11.2265Z" fill="#FDB528" stroke="#FDB528" stroke-width="0.200019" stroke-miterlimit="22.9256"/>
<path d="M16.4914 20.0537H14.4098C13.8556 20.0537 13.4062 20.3053 13.4062 20.6157C13.4062 20.9261 13.8556 21.1777 14.4098 21.1777H16.4914C17.0457 21.1777 17.495 20.9261 17.495 20.6157C17.495 20.3053 17.0457 20.0537 16.4914 20.0537Z" fill="#FDB528"/>
<path d="M16.4914 22.3955H14.4098C13.8556 22.3955 13.4062 22.6471 13.4062 22.9575C13.4062 23.2679 13.8556 23.5195 14.4098 23.5195H16.4914C17.0457 23.5195 17.495 23.2679 17.495 22.9575C17.495 22.6471 17.0457 22.3955 16.4914 22.3955Z" fill="#FDB528"/>
<path d="M16.4914 24.7373H14.4098C13.8556 24.7373 13.4062 24.9889 13.4062 25.2993C13.4062 25.6097 13.8556 25.8613 14.4098 25.8613H16.4914C17.0457 25.8613 17.495 25.6097 17.495 25.2993C17.495 24.9889 17.0457 24.7373 16.4914 24.7373Z" fill="#FDB528"/>
<path fill-rule="evenodd" clip-rule="evenodd" d="M21.5876 24.3081H23.1025V22.8042C23.1025 22.4951 23.3572 22.2422 23.6686 22.2422C23.98 22.2422 24.2347 22.4951 24.2347 22.8042V24.8701C24.2347 25.1792 23.98 25.4321 23.6686 25.4321H21.5876C21.2762 25.4321 21.0215 25.1792 21.0215 24.8701C21.0215 24.561 21.2762 24.3081 21.5876 24.3081Z" fill="#FDB528"/>
<path d="M18.952 12.9L17.432 15.604H18.248V16.244H17.072L17.032 16.316V16.604H18.248V17.252H17.032V18.5H15.936V17.252H14.568V16.604H15.936V16.316L15.896 16.244H14.568V15.604H15.536L14.024 12.9H15.272L16.488 15.236L17.704 12.9H18.952Z" fill="#FDB528"/>
</g>
<defs>
<clipPath id="clip0_444_18798">
<rect width="17.7778" height="20" fill="white" transform="translate(11 10)"/>
</clipPath>
</defs>
</svg>
