<svg width="40" height="40" viewBox="0 0 40 40" fill="none" xmlns="http://www.w3.org/2000/svg">
<rect width="40" height="40" rx="8" fill="#EDEDFF"/>
<path fill-rule="evenodd" clip-rule="evenodd" d="M15 14C15 12.8954 15.8954 12 17 12H27.6667C28.7713 12 29.6667 12.8954 29.6667 14V20.6667C29.6667 21.7713 28.7713 22.6667 27.6667 22.6667H25.6667V26C25.6667 27.1046 24.7713 28 23.6667 28H13C11.8954 28 11 27.1046 11 26V19.3333C11 18.2287 11.8954 17.3333 13 17.3333H15V14ZM16.3333 15.3333V16.6667H28.3333V15.3333H16.3333ZM28.3333 14H16.3333C16.3333 13.6318 16.6318 13.3333 17 13.3333H27.6667C28.0348 13.3333 28.3333 13.6318 28.3333 14ZM28.3333 18H16.3333V20.6667C16.3333 21.0348 16.6318 21.3333 17 21.3333H27.6667C28.0348 21.3333 28.3333 21.0348 28.3333 20.6667V18ZM17 22.6667H24.3333V26C24.3333 26.3682 24.0348 26.6667 23.6667 26.6667H13C12.6318 26.6667 12.3333 26.3682 12.3333 26V19.3333C12.3333 18.9652 12.6318 18.6667 13 18.6667H15V20.6667C15 21.7713 15.8954 22.6667 17 22.6667Z" fill="#666CFF"/>
</svg>
