<svg width="26" height="22" viewBox="0 0 26 22" fill="none" xmlns="http://www.w3.org/2000/svg">
<path d="M19.8999 10.1025V4.90882C19.8999 4.69681 19.7674 4.51143 19.582 4.40531L10.1751 0.0596102C10.0162 -0.0198701 9.85722 -0.0198701 9.69827 0.0596102L0.317921 4.40531C0.132528 4.51141 0 4.6968 0 4.90882V15.6936C0 15.9056 0.132528 16.091 0.317921 16.1971L9.69827 20.5692C9.85723 20.6487 10.0162 20.6487 10.1751 20.5692L13.9116 18.8203C14.9186 20.7017 16.906 22 19.1848 22C22.4706 22 25.1469 19.3237 25.1469 16.0379C25.1733 12.9643 22.868 10.4468 19.9002 10.1023L19.8999 10.1025ZM9.93661 1.46406L12.9309 2.84201L5.32597 6.39272L2.33163 5.01477L9.93661 1.46406ZM9.2477 18.8204L1.37774 15.1638V6.07488L4.74306 7.63823L4.74287 10.7385C4.74287 11.1095 5.06079 11.4274 5.43178 11.4274C5.80276 11.4274 6.12068 11.1095 6.12068 10.7385V8.27428L9.24737 9.73173L9.2477 18.8204ZM9.93661 8.53907L6.94227 7.16112L14.5737 3.63686L17.5681 5.01482L9.93661 8.53907ZM13.4078 17.522L10.6255 18.8204V9.73154L18.4954 6.07474V10.1025C15.5541 10.4469 13.2223 12.9643 13.2223 16.0381C13.2223 16.5416 13.3018 17.0451 13.4077 17.5221L13.4078 17.522ZM19.2109 20.6222C16.667 20.6222 14.6268 18.5554 14.6268 16.0381C14.6268 13.5206 16.667 11.4274 19.2109 11.4274C21.7548 11.4274 23.7951 13.4942 23.7951 16.038C23.7951 18.5819 21.7282 20.6223 19.2109 20.6223V20.6222Z" fill="#626477"/>
<path d="M21.5012 13.2449L20.083 15.6465H20.9343C21.0225 15.6465 21.0962 15.7181 21.0962 15.8082V16.2364C21.0962 16.3248 21.0227 16.3982 20.9343 16.3982H19.7346V16.7115H20.9343C21.0225 16.7115 21.0962 16.7848 21.0962 16.8732V17.3015C21.0962 17.3915 21.0227 17.4632 20.9343 17.4632H19.7346V18.8383C19.7346 18.9283 19.6611 19 19.5713 19H18.8479C18.7576 19 18.6845 18.9284 18.6845 18.8383V17.4632H17.4929C17.4048 17.4632 17.3314 17.3916 17.3314 17.3015V16.8732C17.3314 16.7848 17.4046 16.7115 17.4929 16.7115H18.6845V16.3982H17.4929C17.4048 16.3982 17.3314 16.3248 17.3314 16.2364V15.8082C17.3314 15.7182 17.4046 15.6465 17.4929 15.6465H18.3613L17.0213 13.2416C16.9929 13.1916 16.9929 13.1299 17.0213 13.0799C17.0513 13.0315 17.1046 13 17.1613 13H17.9828C18.043 13 18.0996 13.035 18.128 13.09L19.0363 14.8885C19.1179 15.0652 19.1862 15.2152 19.2481 15.3552C19.3145 15.1952 19.3898 15.0334 19.4714 14.8719L20.4165 13.087C20.4449 13.0338 20.4982 13.0004 20.5583 13.0004H21.3631C21.4215 13.0004 21.4731 13.032 21.5031 13.082C21.5311 13.1333 21.5311 13.1949 21.5012 13.2449Z" fill="#626477"/>
</svg>
