<svg width="41" height="40" viewBox="0 0 41 40" fill="none" xmlns="http://www.w3.org/2000/svg">
<rect x="0.5" width="40" height="40" rx="8" fill="#FDB528"/>
<rect x="0.5" width="40" height="40" rx="8" fill="white" fill-opacity="0.88"/>
<g clip-path="url(#clip0_597_13673)">
<path d="M19 13.9C20.16 13.9 21.1 14.84 21.1 16C21.1 17.16 20.16 18.1 19 18.1C17.84 18.1 16.9 17.16 16.9 16C16.9 14.84 17.84 13.9 19 13.9ZM19 22.9C21.97 22.9 25.1 24.36 25.1 25V26.1H12.9V25C12.9 24.36 16.03 22.9 19 22.9ZM19 12C16.79 12 15 13.79 15 16C15 18.21 16.79 20 19 20C21.21 20 23 18.21 23 16C23 13.79 21.21 12 19 12ZM19 21C16.33 21 11 22.34 11 25V28H27V25C27 22.34 21.67 21 19 21Z" fill="#FDB528"/>
<rect x="31.0879" y="10" width="1.29124" height="8.60827" transform="rotate(45 31.0879 10)" fill="#FDB528"/>
<rect x="32.002" y="16.087" width="1.29124" height="8.60827" transform="rotate(135 32.002 16.087)" fill="#FDB528"/>
</g>
<defs>
<clipPath id="clip0_597_13673">
<rect width="24" height="24" fill="white" transform="translate(8.5 8)"/>
</clipPath>
</defs>
</svg>
