<svg width="40" height="40" viewBox="0 0 40 40" fill="none" xmlns="http://www.w3.org/2000/svg">
<rect width="40" height="40" rx="8" fill="#26C6F9"/>
<rect width="40" height="40" rx="8" fill="white" fill-opacity="0.88"/>
<path d="M12 11.9H11.9V12V26C11.9 26.6073 12.3938 27.1 13 27.1H19.2735C19.5164 27.7618 19.8693 28.3689 20.3125 28.9H13C11.4012 28.9 10.1 27.5988 10.1 26V10.1H25.9V14V14.1H26H29.9V18.9H28.1V16V15.9H28H26H25.9V16V18.9H25C24.6925 18.9 24.3925 18.9308 24.1 18.9762V12V11.9H24H12ZM21.5395 28.4605C19.6501 26.5712 19.6268 23.5287 21.4695 21.6109L22.7347 22.8761C21.5987 24.0877 21.6219 26.0133 22.8043 27.1957C24.0103 28.4018 25.9897 28.4018 27.1957 27.1957C28.4018 25.9897 28.4018 24.0103 27.1957 22.8043L27.125 22.7336L27.0543 22.8043L25.8188 24.0398V20.1625H29.6961L28.4605 21.398L28.3898 21.4688L28.4605 21.5395C30.3735 23.4524 30.3735 26.5476 28.4605 28.4605C26.5476 30.3735 23.4524 30.3735 21.5395 28.4605ZM21.9 16.9H14.1V14.1H21.9V16.9ZM20.4868 20.9H14.1V19.1H21.9V19.7552C21.375 20.0665 20.8959 20.4503 20.4868 20.9ZM19.0098 23.9H14.1V22.1H19.6419C19.3417 22.6545 19.1267 23.2596 19.0098 23.9Z" fill="#26C6F9" stroke="#E5F8FE" stroke-width="0.2"/>
</svg>
