<svg width="19" height="24" viewBox="0 0 19 24" fill="none" xmlns="http://www.w3.org/2000/svg">
<g clip-path="url(#clip0_209_2583)">
<path fill-rule="evenodd" clip-rule="evenodd" d="M17.4394 0H6.91002C6.65457 0 6.40956 0.0975368 6.22378 0.272871L0.314672 5.83944C0.113793 6.02871 0 6.29229 0 6.56748V22.999C0 23.2649 0.105665 23.5191 0.293772 23.7061C0.481878 23.8942 0.736171 23.9987 1.00091 23.9987H17.4394C17.7053 23.9987 17.9595 23.893 18.1465 23.7061C18.3346 23.518 18.4391 23.2637 18.4391 22.999V0.999753C18.4391 0.733849 18.3334 0.479556 18.1465 0.29261C17.9584 0.104504 17.7041 0 17.4382 0L17.4394 0ZM6.60928 2.07846V6.2261H2.20619L6.60928 2.07846ZM16.9273 22.488H1.51182V7.73908H7.12019C7.38609 7.73908 7.64039 7.63342 7.82733 7.44647C8.01544 7.25837 8.1211 7.00407 8.1211 6.73933V1.51298H16.9273L16.9261 22.4892L16.9273 22.488ZM4.02804 12.2351C4.18712 12.3941 4.44257 12.4011 4.61094 12.2513L6.47923 10.5862C6.65341 10.4306 6.66966 10.1612 6.51407 9.98591L6.31667 9.7653C6.16108 9.58996 5.89169 9.57487 5.71635 9.73046L4.35548 10.9427L3.86199 10.4492C3.78187 10.3691 3.67389 10.325 3.56126 10.325C3.44862 10.325 3.34064 10.3691 3.26052 10.4492L3.05151 10.6582C2.88546 10.8243 2.88546 11.0937 3.05151 11.2597L4.02688 12.2351H4.02804ZM7.90164 10.9915C7.90164 11.1436 7.96202 11.2887 8.06885 11.3967C8.17568 11.5035 8.32198 11.5651 8.47409 11.5651H14.7211C14.8732 11.5651 15.0195 11.5047 15.1263 11.3967C15.2343 11.2887 15.2935 11.1436 15.2935 10.9915C15.2935 10.8394 15.2332 10.6942 15.1263 10.5862C15.0183 10.4782 14.8732 10.4179 14.7211 10.4179H8.47409C8.32198 10.4179 8.17684 10.4782 8.06885 10.5862C7.96086 10.6931 7.90164 10.8394 7.90164 10.9915ZM4.61094 16.3734L6.47923 14.7083C6.65341 14.5527 6.66966 14.2833 6.51407 14.108L6.31667 13.8874C6.16108 13.7132 5.89169 13.697 5.71635 13.8526L4.35548 15.0648L3.86199 14.5713C3.78187 14.4912 3.67389 14.4471 3.56126 14.4471C3.44862 14.4471 3.34064 14.4923 3.26052 14.5713L3.05151 14.7803C2.88546 14.9464 2.88546 15.2157 3.05151 15.3818L4.02688 16.3572C4.18596 16.5162 4.44141 16.5232 4.60978 16.3734H4.61094ZM8.69007 14.54C8.53796 14.54 8.39281 14.6003 8.28482 14.7072C8.17684 14.8151 8.11646 14.9603 8.11646 15.1124C8.11646 15.2645 8.17684 15.4097 8.28366 15.5176C8.39165 15.6256 8.53679 15.686 8.68891 15.686H14.9359C15.088 15.686 15.2332 15.6256 15.3411 15.5176C15.4491 15.4097 15.5084 15.2645 15.5084 15.1124C15.5084 14.9603 15.448 14.8151 15.34 14.7072C15.232 14.5992 15.0869 14.5388 14.9347 14.5388H8.68775L8.69007 14.54ZM6.53265 18.0095C6.37705 17.8341 6.10766 17.8191 5.93233 17.9746L4.57146 19.1869L4.07797 18.6934C3.99785 18.6133 3.88986 18.5692 3.77723 18.5692C3.6646 18.5692 3.55661 18.6144 3.47649 18.6934L3.26748 18.9024C3.18736 18.9825 3.14324 19.0905 3.14324 19.2031C3.14324 19.3158 3.18853 19.4238 3.26748 19.5039L4.24285 20.4793C4.40193 20.6383 4.65738 20.6465 4.82575 20.4967L6.69405 18.8316C6.86822 18.676 6.88447 18.4066 6.72888 18.2313L6.53148 18.0106L6.53265 18.0095ZM14.9371 18.662H8.69007C8.53796 18.662 8.39281 18.7224 8.28482 18.8293C8.178 18.9372 8.11646 19.0824 8.11646 19.2345C8.11646 19.3866 8.17684 19.5318 8.28482 19.6397C8.39165 19.7477 8.53796 19.8081 8.69007 19.8081H14.9371C15.0892 19.8081 15.2343 19.7477 15.3423 19.6397C15.4503 19.5318 15.5107 19.3866 15.5107 19.2345C15.5107 19.0824 15.4503 18.9372 15.3423 18.8293C15.2343 18.7213 15.0892 18.6609 14.9371 18.6609V18.662Z" fill="#626477"/>
</g>
<defs>
<clipPath id="clip0_209_2583">
<rect width="18.4403" height="24" fill="white"/>
</clipPath>
</defs>
</svg>
