<svg width="24" height="24" viewBox="0 0 24 24" fill="none" xmlns="http://www.w3.org/2000/svg">
<path fill-rule="evenodd" clip-rule="evenodd" d="M6.37828 6.79771C6.37828 6.26012 6.36212 6.02807 6.52052 5.48331C7.36857 2.56599 10.8534 1.51746 13.1495 3.38797C13.2022 3.43093 13.2256 3.46147 13.2805 3.5035C13.3387 3.54814 13.3661 3.57765 13.4206 3.63239C13.8022 4.0163 14.0206 4.31596 14.2666 4.80323C14.6768 5.61588 14.7936 6.71395 14.5383 7.62981C14.4586 7.91547 14.3756 8.11874 14.2662 8.36616C14.1857 8.54812 13.9955 8.83698 13.8854 8.99375C13.8533 9.03941 13.8173 9.08655 13.7787 9.13354C13.7376 9.18357 13.713 9.22197 13.6674 9.26876C13.368 9.57681 13.2725 9.70958 12.8592 9.98439C12.6429 10.1282 12.4584 10.2279 12.2126 10.3463C11.9836 10.4565 11.7334 10.5362 11.4566 10.5987C10.8346 10.7393 10.2839 10.7401 9.64435 10.6132C9.09256 10.5037 8.69058 10.2979 8.22522 10.0155C8.12211 9.95287 8.03726 9.87897 7.94049 9.80714C7.87435 9.75809 7.86487 9.74822 7.80688 9.69426C7.37378 9.2913 7.09175 8.98968 6.80407 8.41123C6.60546 8.012 6.37832 7.38902 6.37832 6.79771H6.37828ZM4.89924 6.48396C4.89924 7.77529 5.24981 8.80162 5.83567 9.67094C5.8943 9.75794 5.95867 9.8504 6.02481 9.92994C6.06291 9.97575 6.08461 10.007 6.12188 10.057C6.25209 10.2319 6.49921 10.47 6.65284 10.6242L7.38674 11.2348L6.09129 11.7993C5.98896 11.8617 5.89351 11.901 5.78613 11.9647C5.67728 12.0293 5.59587 12.0748 5.48888 12.1382C5.07595 12.3828 4.51332 12.8003 4.1544 13.1342C3.9114 13.3603 3.67901 13.5542 3.43715 13.8289C3.14682 14.1586 2.86572 14.504 2.61762 14.8694C2.35258 15.2597 2.29749 15.3938 2.08503 15.7486C1.96813 15.9439 1.72891 16.4942 1.63999 16.7153C1.46726 17.1447 1.30243 17.6781 1.2032 18.1609C1.0998 18.6642 0.999878 19.2416 0.999878 19.8401V22.2155C0.999878 22.4094 1.1512 22.5988 1.26492 22.69C1.43642 22.8273 1.55505 22.8433 1.85147 22.8429H12.2944L11.8192 22.1304C11.7816 22.0704 11.7455 22.002 11.7129 21.9454L11.5101 21.5655C11.4813 21.5072 11.4472 21.3863 11.3756 21.3863H2.45652C2.45652 19.754 2.40256 18.7831 3.01999 17.2437C3.27232 16.6146 3.54752 16.1319 3.91739 15.5864C3.97724 15.4982 4.03386 15.4291 4.09882 15.342C4.41472 14.9187 4.96003 14.347 5.35027 14.0388L5.83081 13.6678C6.81207 12.9257 8.2695 12.38 9.49955 12.2271C10.2016 12.1398 10.6019 12.2049 11.4334 12.0768C12.1413 11.9677 12.7825 11.8041 13.3634 11.4521L14.3167 10.7023C15.0761 10.0335 15.6752 9.04732 15.9426 8.07033C17.0477 4.0331 13.5225 0.232963 9.27458 1.13336C8.61094 1.27403 8.10978 1.50396 7.55628 1.83534L6.94145 2.27375C6.8677 2.33203 6.82965 2.3774 6.76263 2.43107C6.49965 2.64151 6.12055 3.07859 5.93456 3.35095C5.83813 3.49221 5.74155 3.62267 5.66122 3.77228C5.23312 4.56907 4.89929 5.38265 4.89929 6.48387L4.89924 6.48396Z" fill="#626477" stroke="#626477" stroke-width="0.4"/>
<path fill-rule="evenodd" clip-rule="evenodd" d="M14.4458 13.7C14.53 13.6803 14.8589 13.4841 14.9614 13.4312C15.074 13.373 15.3803 13.1846 15.4767 13.1621L15.8287 13.4375C16.0668 13.6169 16.358 13.7845 16.6443 13.8769C17.1642 14.0447 17.6914 13.9534 18.1341 13.6906C18.376 13.5469 18.4821 13.4771 18.6882 13.3035C18.7411 13.259 18.8139 13.1933 18.8606 13.1621C18.9756 13.2391 19.7541 13.6784 19.8466 13.6999C19.8266 13.9401 19.7345 13.8559 19.7345 14.5291C19.7345 15.1353 20.0582 15.7184 20.3675 16.025C20.556 16.2117 20.7059 16.3585 20.9592 16.4865C21.1904 16.6033 21.5066 16.7254 21.7738 16.7476L21.8188 17.3077C21.8294 17.5302 21.8598 17.3224 21.822 17.6698C21.8148 17.7355 21.8222 17.7988 21.8153 17.8648C21.8042 17.9729 21.7738 18.1016 21.7738 18.2267C21.6312 18.2267 21.464 18.2812 21.3508 18.3191C21.2848 18.3411 21.224 18.3595 21.1536 18.3908C21.119 18.4063 21.0954 18.4158 21.0608 18.4324C20.5548 18.6753 20.1638 19.0833 19.9352 19.5927C19.6554 20.2161 19.704 20.64 19.8466 21.252L18.8381 21.8123C18.7825 21.7291 18.7614 21.7329 18.688 21.6711C18.6251 21.618 18.5848 21.5799 18.5194 21.526C18.2223 21.2811 17.6683 20.9607 17.247 20.9607C16.7475 20.9607 16.5324 20.997 16.0772 21.2699C15.6946 21.4992 15.5839 21.658 15.3871 21.7898L14.9294 21.5304C14.8398 21.4769 14.523 21.2923 14.4459 21.2744L14.518 20.9432C14.7369 19.9741 14.1386 18.8963 13.3332 18.4878C13.1364 18.388 12.7936 18.2267 12.5187 18.2267C12.5187 17.8705 12.4134 17.8712 12.4758 17.1081C12.4846 16.9995 12.5187 16.8616 12.5187 16.7476C13.6094 16.6569 14.5579 15.6188 14.5579 14.4394C14.5579 14.0223 14.4795 13.9617 14.4459 13.6999L14.4458 13.7ZM22.9615 17.2921V17.7494C22.9412 18.3307 22.8398 18.8886 22.6092 19.1293C22.492 19.2516 22.4131 19.2981 22.2068 19.332C22.118 19.3466 22.0199 19.3381 21.9107 19.3497C21.5636 19.3866 21.1911 19.6576 21.0162 19.979C20.6844 20.5887 21.0343 21.0126 21.0343 21.2744C21.0343 21.593 20.9904 21.8625 20.7118 22.0723C20.6558 22.1145 20.6192 22.1291 20.5568 22.1639C20.4954 22.1981 20.4813 22.2116 20.4143 22.2456L19.5033 22.7463C19.3028 22.8576 19.1141 23 18.8157 23C18.513 23 18.2997 22.8789 18.1155 22.6918L17.5835 22.2602C17.4866 22.1954 17.2698 22.0812 17.1126 22.0812C16.6609 22.0812 16.0744 22.7559 15.9243 22.8426C15.6477 23.0024 15.3076 23.0285 15.0132 22.8809C14.7462 22.747 13.6358 22.1364 13.5093 22.0093C12.962 21.4598 13.4149 20.9215 13.4149 20.5574C13.4149 19.9984 13.0586 19.5583 12.5782 19.3996C12.2565 19.2933 11.5984 19.4804 11.4366 18.6364C11.278 17.8091 11.2707 17.1474 11.4405 16.3195C11.6037 15.5237 12.179 15.647 12.3532 15.6187C12.7578 15.5532 13.0912 15.3283 13.2882 14.9626C13.6056 14.3734 13.2356 13.9253 13.2356 13.6104C13.2356 13.3257 13.3756 13.0713 13.5269 12.9381C13.7005 12.7853 14.6419 12.3139 14.8983 12.1581C15.2699 11.9321 15.678 11.8894 16.0556 12.135C16.1999 12.2288 16.7282 12.826 17.1797 12.826C17.6258 12.826 18.1468 12.2087 18.3593 12.1008C18.958 11.7965 19.2658 12.1027 19.7119 12.3331L20.475 12.7578C20.6045 12.8325 20.715 12.8783 20.8263 13.0116C21.2886 13.5649 20.8773 14.0208 20.8773 14.3947C20.8773 14.9653 21.1917 15.3703 21.6676 15.554C22.0378 15.697 22.6156 15.4725 22.8275 16.2317C22.8965 16.4789 22.9474 16.8711 22.9614 17.2921H22.9615Z" fill="#626477" stroke="#626477" stroke-width="0.4"/>
<path fill-rule="evenodd" clip-rule="evenodd" d="M17.135 18.5181C16.2004 18.5181 15.7332 17.3971 16.3889 16.7412C17.0391 16.0908 18.1362 16.5724 18.1567 17.4676C18.1691 18.0154 17.6886 18.5181 17.135 18.5181ZM14.9388 17.4648C14.9388 18.4937 15.6463 19.3495 16.5833 19.5851C17.3461 19.777 18.0144 19.5637 18.6075 19.0718C18.6665 19.0228 18.6881 18.9919 18.7356 18.931C19.1522 18.3976 19.2863 18.1123 19.2863 17.3527C19.2863 17.0654 19.1803 16.739 19.085 16.5457C19.026 16.426 18.9792 16.3367 18.9053 16.2323C18.7949 16.0764 18.6901 15.9473 18.5439 15.8318C18.3555 15.6829 18.319 15.648 18.0837 15.53C16.8409 14.9071 15.27 15.6382 15.0001 16.9882C14.9763 17.1073 14.9388 17.315 14.9388 17.4648Z" fill="#626477" stroke="#626477" stroke-width="0.4"/>
</svg>
