<svg width="24" height="24" viewBox="0 0 24 24" fill="none" xmlns="http://www.w3.org/2000/svg">
<g clip-path="url(#clip0_164_2956)">
<path fill-rule="evenodd" clip-rule="evenodd" d="M3.49609 3.45805C3.16023 3.4151 2.82437 3.57048 2.65065 3.8576L0.120618 8.15669C-0.0680609 8.46407 -0.0323518 8.85446 0.202653 9.1218L1.80667 10.9082C2.36595 11.5307 2.36595 12.4688 1.80667 13.0913L0.205548 14.8748C-0.0323518 15.1455 -0.0680609 15.5359 0.120618 15.8433L2.65065 20.1424C2.8374 20.4599 3.21235 20.6158 3.57089 20.5444L5.94506 20.0729C6.76154 19.9108 7.59443 20.3677 7.8637 21.1611L8.63385 23.4315C8.75594 23.791 9.11303 24.0178 9.48942 23.9985L9.50004 23.998H14.5625C14.9244 23.998 15.2584 23.7775 15.3756 23.4315L16.1458 21.1611C16.4151 20.3677 17.2484 19.9108 18.0644 20.0729L20.4386 20.5444C20.7971 20.6158 21.1721 20.4594 21.3588 20.1424L23.8845 15.8496C24.0679 15.5379 24.0274 15.1475 23.7895 14.8869L22.0798 13.0956L22.0754 13.0908C21.5181 12.4674 21.5147 11.5283 22.0769 10.9073L23.6934 9.12083C23.9366 8.85253 23.9796 8.46311 23.7957 8.15041L21.2696 3.8576C21.0828 3.54056 20.7083 3.38422 20.3498 3.45563L17.9752 3.92709C17.1587 4.08923 16.3258 3.63225 16.0565 2.83893L15.2864 0.568507C15.1691 0.222515 14.8347 0.00198738 14.4733 0.00198738H9.41077L9.40015 0.00150482C9.02328 -0.0177974 8.66715 0.209969 8.54796 0.558856L7.83909 2.83507L7.83716 2.84038C7.56548 3.63177 6.73452 4.09261 5.92093 3.92757L3.49513 3.45805H3.49609ZM20.6292 14.2031L21.8052 15.5388L19.9401 18.8038L18.1995 18.4467C16.5613 18.1104 14.9563 19.0851 14.4274 20.6582L13.8667 22.3264H10.1259L9.5951 20.6303C9.07877 19.0494 7.45787 18.0862 5.82394 18.4216L4.08626 18.7782L2.19223 15.5282L3.37014 14.1906C4.48243 12.9277 4.48243 11.0298 3.37014 9.76697L2.19319 8.43029L4.0602 5.19139L5.79981 5.54848C7.43664 5.88434 9.04644 4.91343 9.57146 3.33741L10.1317 1.65619H13.8681L14.4279 3.3514C14.9491 4.92936 16.5637 5.89688 18.1995 5.56102L19.9401 5.20345L21.8052 8.46842L20.6292 9.80413C19.5256 11.0573 19.5256 12.9494 20.6292 14.2031ZM12.0002 7.4454C9.48412 7.4454 7.44532 9.48468 7.44532 12.0002C7.44532 14.5158 9.4846 16.5551 12.0002 16.5551C14.5157 16.5551 16.555 14.5158 16.555 12.0002C16.555 10.7919 16.0749 9.6333 15.2207 8.77918C14.3666 7.92506 13.208 7.44492 11.9997 7.44492L12.0002 7.4454ZM12.0002 14.8903C10.4043 14.8903 9.11014 13.596 9.11014 12.0002C9.11014 10.4044 10.4043 9.11022 12.0002 9.11022C13.596 9.11022 14.8902 10.4044 14.8902 12.0002C14.8902 13.596 13.596 14.8903 12.0002 14.8903Z" fill="#626477"/>
</g>
<defs>
<clipPath id="clip0_164_2956">
<rect width="23.9999" height="24" fill="white"/>
</clipPath>
</defs>
</svg>
