<svg width="24" height="24" viewBox="0 0 24 24" fill="none" xmlns="http://www.w3.org/2000/svg">
<path d="M6.94952 2.98377C9.23934 1.69804 11.9324 1.33153 14.4824 1.9585C17.0324 2.58548 19.2485 4.15908 20.6809 6.36007L18.012 5.94974C17.8278 5.92205 17.6559 6.04894 17.6284 6.23334C17.6007 6.41758 17.7278 6.58927 17.912 6.61696L21.2681 7.13739H21.3216H21.3214C21.4867 7.13951 21.6286 7.02027 21.655 6.85705L22.1621 3.49096C22.1901 3.30966 22.0665 3.13976 21.8852 3.1106C21.7039 3.08258 21.534 3.20638 21.505 3.38752L21.1246 5.83618C19.703 3.73694 17.6005 2.19253 15.1722 1.46422C12.7437 0.73574 10.1384 0.867849 7.79606 1.8379C5.45378 2.80812 3.51792 4.55711 2.31609 6.78909C1.1141 9.0214 0.719227 11.6002 1.19846 14.0897C1.22924 14.2489 1.36999 14.3629 1.53207 14.36C1.55308 14.3634 1.57442 14.3634 1.59543 14.36C1.68275 14.3437 1.75979 14.2935 1.80997 14.2202C1.85997 14.1469 1.87887 14.0568 1.86225 13.9697C1.44428 11.8359 1.71125 9.62482 2.62493 7.65193C3.5386 5.67896 5.05223 4.04511 6.94977 2.9839L6.94952 2.98377Z" fill="#626477" stroke="#626477"/>
<path d="M15.2103 7.79075L13.0435 11.4599H14.3442C14.4788 11.4599 14.5914 11.5693 14.5914 11.707V12.3612C14.5914 12.4962 14.4792 12.6083 14.3442 12.6083H12.5113V13.0869H14.3442C14.4788 13.0869 14.5914 13.199 14.5914 13.334V13.9884C14.5914 14.1259 14.4792 14.2355 14.3442 14.2355H12.5113V16.3362C12.5113 16.4737 12.399 16.5833 12.2617 16.5833H11.1565C11.0187 16.5833 10.9069 16.4739 10.9069 16.3362V14.2355H9.08647C8.95183 14.2355 8.83975 14.1261 8.83975 13.9884V13.334C8.83975 13.199 8.95147 13.0869 9.08647 13.0869H10.9069V12.6083H9.08647C8.95183 12.6083 8.83975 12.4962 8.83975 12.3612V11.707C8.83975 11.5695 8.95147 11.4599 9.08647 11.4599H10.4132L8.36588 7.78574C8.32254 7.70937 8.32254 7.61505 8.36588 7.53867C8.41171 7.46478 8.49324 7.41664 8.57974 7.41664H9.83485C9.92686 7.41664 10.0134 7.47011 10.0567 7.55412L11.4443 10.3018C11.569 10.5718 11.6735 10.8009 11.768 11.0148C11.8694 10.7704 11.9845 10.5233 12.1092 10.2764L13.5531 7.54953C13.5964 7.46835 13.6778 7.4172 13.7696 7.4172H14.9993C15.0885 7.4172 15.1673 7.46551 15.2132 7.54189C15.256 7.62022 15.2559 7.71437 15.2103 7.79075Z" fill="#626477"/>
<path d="M22.8026 9.83279C22.7668 9.64855 22.5883 9.52834 22.404 9.56434C22.2198 9.60018 22.0996 9.77871 22.1354 9.96294C22.5966 12.3124 22.2281 14.749 21.093 16.857C19.9581 18.965 18.1269 20.614 15.9117 21.5225C13.6966 22.431 11.2349 22.5429 8.9463 21.839C6.65794 21.135 4.68443 19.6589 3.36292 17.6622L6.0318 17.9325C6.21603 17.9509 6.38039 17.8165 6.3988 17.6323C6.41721 17.448 6.28282 17.2837 6.09858 17.2653L2.71574 16.9317H2.68234C2.51163 16.9307 2.36763 17.0587 2.34873 17.2286L2.01512 20.608C2.00584 20.6967 2.03239 20.7853 2.08875 20.8542C2.14511 20.9231 2.22672 20.9666 2.3155 20.975H2.34889H2.34873C2.51782 20.9669 2.654 20.8335 2.66573 20.6647L2.91268 18.1993C3.92769 19.6812 5.28898 20.893 6.87839 21.7296C8.46775 22.5661 10.2373 23.0023 12.0335 23C14.2091 22.9948 16.3346 22.345 18.1411 21.1327C19.9477 19.9207 21.3546 18.2003 22.1843 16.1891C23.0139 14.1778 23.2291 11.966 22.8025 9.83253L22.8026 9.83279Z" fill="#626477" stroke="#626477"/>
</svg>
